<svg id="emCA4ISFKuH1" xmlns="http://www.w3.org/2000/svg" xmlns:xlink="http://www.w3.org/1999/xlink" viewBox="0 0 1024 1024" shape-rendering="geometricPrecision" text-rendering="geometricPrecision" project-id="e7760d616d3743f38f3a241c32f02102" export-id="daf6d67ac25c4eedb34bdd3db71fd02e" cached="false" style="background-color:transparent"><rect width="1024" height="1024" rx="128" ry="128" fill="#151138" stroke-width="0"/><ellipse rx="512" ry="85.000085" transform="matrix(.871696-.002563 0.002941 0.999995 509.001287 85.000446)" fill="rgba(202,198,255,0.37)" stroke-width="0"/><path d="" transform="translate(90.925821 83.070459)" fill="none" stroke="#3f5787" stroke-width="100"/><path d="" fill="none" stroke="#3f5787" stroke-width="2.048"/><g transform="translate(11.834312 0)"><path d="M135.271032,512Q165.57964,322.594156,279.236913,229.774049" transform="translate(-10.532523 143.944517)" fill="none" stroke="#e41a1a" stroke-width="200"/><path d="M279.236914,229.77405q229.208833-176.168774,460.311957,0" transform="translate(-10.532524 143.944516)" fill="none" stroke="#dbef04" stroke-width="200"/><path d="M743.439076,229.774051c61.782076,47.332778,138.50304,153.24778,140.075676,282.22595" transform="matrix(1-.000024 0.000024 1-14.431455 143.963608)" fill="none" stroke="#07f403" stroke-width="200"/></g><path d="" fill="none" stroke="#3f5787" stroke-width="2.048"/><path d="" fill="none" stroke="#3f5787" stroke-width="2.048"/><g transform="translate(8.402812-57.46907)"><polygon points="50,23.15 19,76.85 81,76.85 50,23.15" transform="matrix(.716386 1.223017-7.751701 4.540585 959.136422 281.288981)" fill="#fff"/><circle r="27.5" transform="matrix(2.288643 0 0 2.288644 498.860369 628.446118)" fill="#fff"/></g></svg>
