<?xml version="1.0" encoding="UTF-8"?>
<svg xmlns="http://www.w3.org/2000/svg" version="1.1" width="1080" height="1080" style="background-color:transparent;">
  <path d="M0 0 C356.4 0 712.8 0 1080 0 C1080 356.4 1080 712.8 1080 1080 C723.6 1080 367.2 1080 0 1080 C0 723.6 0 367.2 0 0 Z " fill="#010005" transform="translate(0,0)"/>
  <path d="M0 0 C0.65645825 -0.00292886 1.3129165 -0.00585773 1.98926742 -0.00887535 C4.2148833 -0.01632082 6.44022992 -0.00937298 8.66584492 -0.0026266 C10.2740853 -0.00501378 11.88232459 -0.00827722 13.4905616 -0.0123432 C17.94661358 -0.02102426 22.40258214 -0.01711168 26.85863556 -0.01128747 C31.69255508 -0.00714035 36.52645871 -0.01450587 41.36037445 -0.02043998 C49.8445583 -0.02923214 58.32871803 -0.03050345 66.81290531 -0.02693671 C79.42881333 -0.0216469 92.04469785 -0.02770756 104.66060331 -0.03601964 C128.49885014 -0.05129278 152.33708638 -0.05296134 176.17533708 -0.05049662 C194.57725958 -0.04866687 212.97917859 -0.05041684 231.38110065 -0.05472106 C234.02104193 -0.05532345 236.6609832 -0.05592464 239.30092448 -0.05652466 C243.27862038 -0.05743187 247.25631627 -0.05834054 251.23401217 -0.05925701 C288.2356938 -0.06769151 325.23737413 -0.07203744 362.23905659 -0.06785029 C363.28578084 -0.06773321 363.28578084 -0.06773321 364.35365103 -0.06761376 C372.1354717 -0.06674092 379.91729236 -0.06581165 387.69911301 -0.06486312 C388.75303791 -0.06473486 388.75303791 -0.06473486 389.82825423 -0.064604 C395.66727345 -0.06389311 395.66727345 -0.06389311 398.35259711 -0.06356178 C443.30405176 -0.05802478 488.25548589 -0.06557034 533.20693684 -0.08433264 C544.53412083 -0.08905462 555.86130485 -0.09373502 567.18848896 -0.09816951 C567.88588969 -0.09844283 568.58329042 -0.09871615 569.3018245 -0.09899775 C590.78517435 -0.10736488 612.2685225 -0.11204832 633.75187397 -0.11287707 C634.42604216 -0.11290344 635.10021035 -0.1129298 635.79480788 -0.11295697 C651.25583623 -0.11352193 666.71686438 -0.11300989 682.17789268 -0.11175716 C687.46741009 -0.11136179 692.75692749 -0.11100024 698.04644489 -0.11065978 C700.00019475 -0.11052368 700.00019475 -0.11052368 701.99341431 -0.11038483 C721.698576 -0.10921644 741.40372527 -0.11588549 761.10888386 -0.1264717 C783.50517818 -0.13849108 805.90144504 -0.14012043 828.29773974 -0.12768153 C840.84599451 -0.12102507 853.39418375 -0.12274774 865.94243335 -0.13627005 C874.30923143 -0.1444635 882.67597999 -0.14188412 891.04277397 -0.13029478 C895.8198675 -0.12398724 900.59683239 -0.12256744 905.37391889 -0.13415811 C909.71091717 -0.14458496 914.04767612 -0.14146384 918.38466106 -0.12705358 C919.95236303 -0.12430176 921.52008359 -0.1266891 923.08776821 -0.13456073 C925.20132545 -0.14445751 927.31402527 -0.13619248 929.42754555 -0.12304783 C930.60225609 -0.12306829 931.77696663 -0.12308875 932.98727447 -0.12310984 C934.33689113 0.06249479 934.33689113 0.06249479 935.71377277 0.251849 C938.24701955 4.05171916 937.98880545 7.07521777 937.95986843 11.4765299 C937.96217592 12.32955475 937.96448341 13.1825796 937.96686082 14.06145369 C937.97218946 16.94385863 937.96315503 19.82604401 937.95428181 22.70843774 C937.95515608 24.78077002 937.95690885 26.85310209 937.9594698 28.92543298 C937.96397433 34.65129821 937.95590366 40.37708922 937.94591823 46.10294501 C937.93721551 52.3606041 937.94010543 58.6182595 937.94155407 64.87592298 C937.94249836 75.65251455 937.93633888 86.42907657 937.9249239 97.20566064 C937.90859624 112.64737148 937.90471915 128.08905582 937.90298176 143.53077966 C937.8924708 180.66697412 937.86454872 217.80316199 937.83877277 254.939349 C937.79752277 337.872474 937.75627277 420.805599 937.71377277 506.251849 C625.53377277 506.251849 313.35377277 506.251849 -8.28622723 506.251849 C-8.32747723 423.133099 -8.36872723 340.014349 -8.41122723 254.376849 C-8.42943523 228.08271325 -8.44764324 201.78857751 -8.46640301 174.69764978 C-8.47543621 142.71449548 -8.47543621 142.71449548 -8.47711468 127.76597863 C-8.47910978 116.58000321 -8.48775525 105.39405246 -8.49957408 94.20808481 C-8.51145072 82.81409217 -8.5157499 71.42011937 -8.51311713 60.02611911 C-8.51190649 53.83646341 -8.51389409 47.64685327 -8.52465749 41.45720583 C-8.53431408 35.87040663 -8.53492407 30.28368565 -8.52802944 24.69688302 C-8.52717481 22.66749995 -8.52976713 20.63811218 -8.53599238 18.60873848 C-8.5439289 15.86209451 -8.53974807 13.11573825 -8.53232288 10.36909944 C-8.53757693 9.56572869 -8.54283098 8.76235794 -8.54824425 7.93464262 C-8.50400484 0.77991116 -6.8939145 0.00210834 0 0 Z " fill="#151137" transform="translate(75.28622722625732,190.74815100431442)"/>
  <path d="M0 0 C1.00313808 -0.00284886 1.00313808 -0.00284886 2.02654157 -0.00575527 C4.28196696 -0.01092979 6.53733022 -0.00896165 8.79275995 -0.00706255 C10.42728849 -0.00931821 12.06181646 -0.01200944 13.69634363 -0.01509839 C18.21611566 -0.02234991 22.73587111 -0.02332766 27.25564817 -0.02332116 C32.16230353 -0.02438863 37.06895146 -0.03117681 41.97560275 -0.03722787 C51.72010491 -0.04831468 61.46460346 -0.05395489 71.20911082 -0.05793675 C82.87596515 -0.06294135 94.54281248 -0.07366816 106.20966268 -0.08441848 C134.41231366 -0.1100627 162.61496777 -0.12510695 190.81762703 -0.13792895 C200.15717568 -0.14217853 209.49672413 -0.14674803 218.83627254 -0.15151227 C267.75987781 -0.17640686 316.68348362 -0.19848367 365.60709386 -0.21070265 C369.18877766 -0.21160002 372.77046146 -0.21251472 376.35214526 -0.21343038 C377.06263946 -0.213612 377.77313366 -0.21379361 378.50515798 -0.21398072 C385.70349213 -0.2158234 392.90182628 -0.21768926 400.10016041 -0.21957881 C401.54345031 -0.21995686 402.9867402 -0.22033316 404.4300301 -0.2207077 C450.77847613 -0.2327365 497.12688462 -0.26242245 543.47531296 -0.30412281 C576.77520403 -0.33407425 610.0750874 -0.36170185 643.37499148 -0.37140048 C644.05989148 -0.37160103 644.74479149 -0.37180159 645.45044604 -0.37200822 C660.48618674 -0.37635894 675.52192741 -0.3793046 690.55766864 -0.38093473 C696.60758846 -0.38161108 702.65750825 -0.3824666 708.70742804 -0.3833729 C709.70061541 -0.38351405 709.70061541 -0.38351405 710.71386717 -0.38365804 C732.69847378 -0.38686594 754.68301766 -0.40694838 776.6676043 -0.43416954 C798.08796181 -0.46029247 819.50826437 -0.46805077 840.92863553 -0.45706825 C853.65904359 -0.45108433 866.38926547 -0.45904059 879.11964541 -0.48689909 C887.62182279 -0.50413005 896.12387298 -0.50321973 904.62605304 -0.4875314 C909.47148222 -0.47910752 914.31655569 -0.47858026 919.16195213 -0.50014286 C923.57386733 -0.5196187 927.98514319 -0.51588753 932.39704147 -0.49398937 C933.9794772 -0.49013918 935.56196169 -0.49458975 937.14434028 -0.50857639 C952.71077871 -0.63720575 964.89952227 3.52416746 976.37544066 14.12995183 C983.81213144 22.57686412 989.49096573 32.20987635 989.50539249 43.69220769 C989.51068512 45.03069362 989.51068512 45.03069362 989.51608467 46.39621967 C989.51488689 47.36924972 989.51368912 48.34227977 989.51245505 49.34479558 C989.51510687 50.38839662 989.5177587 51.43199765 989.52049088 52.50722295 C989.52819062 56.02730824 989.52874332 59.54735868 989.5293408 63.06745183 C989.53335497 65.60750462 989.53779312 68.14755676 989.54262036 70.68760812 C989.55333943 76.9513176 989.55934305 83.21501726 989.56332924 89.47873418 C989.5683403 96.98030253 989.57906811 104.48186002 989.58981097 111.98342196 C989.61543611 130.11587839 989.63047567 148.24833903 989.64332144 166.38080836 C989.64757654 172.38673468 989.65214227 178.39266069 989.65690476 184.39858663 C989.68216492 216.33488223 989.70421225 248.27117835 989.7166329 280.20748174 C989.71955421 287.60628039 989.72252174 295.00507901 989.72553831 302.40387762 C989.72590922 303.32308126 989.72628013 304.2422849 989.72666228 305.1893432 C989.73881723 334.99070617 989.76976079 364.79201008 989.81145984 394.59334531 C989.85425293 425.23246069 989.88087458 455.87154488 989.88610762 486.51069095 C989.88684805 490.83877469 989.88775873 495.16685838 989.88876539 499.49494207 C989.88905132 500.77263434 989.88905132 500.77263434 989.88934301 502.07613857 C989.89285551 515.78000028 989.91314833 529.48378795 989.93956203 543.18762248 C989.96571629 556.96469008 989.97343 570.74167222 989.96246074 584.5187611 C989.95648763 592.70122035 989.96437599 600.88338954 989.99229158 609.06580485 C990.01160458 615.17975637 990.00470836 621.29341743 989.98772241 627.40736997 C989.98491713 629.87783132 989.99055002 632.3483199 990.00553535 634.81873739 C990.09769267 651.00262703 989.70303211 664.47765399 978.37544066 677.12995183 C977.54979613 678.12768621 977.54979613 678.12768621 976.70747191 679.14557683 C968.8716816 687.90027645 956.81916411 693.66028692 945.08318438 694.31307688 C940.90977417 694.387532 936.74072071 694.39511473 932.5668717 694.38163412 C930.93871063 694.38372145 929.31055049 694.38668475 927.68239242 694.39044285 C923.19894541 694.39824122 918.71558437 694.39356562 914.23213874 694.38688694 C909.35797746 694.38182031 904.48382951 694.3883307 899.6096701 694.39337361 C891.0638929 694.40060459 882.51814095 694.40037318 873.97236258 694.39527929 C861.26453765 694.38772506 848.55673409 694.39157624 835.84890931 694.3976959 C813.15429022 694.4082377 790.45968239 694.40731045 767.76506223 694.40153808 C747.90361342 694.39651101 728.04216875 694.39519167 708.18071944 694.39758337 C706.2060975 694.39781252 706.2060975 694.39781252 704.19158421 694.39804631 C698.84808024 694.39866896 693.50457627 694.39930457 688.1610723 694.39996583 C673.22331914 694.40179992 658.28556597 694.40294107 643.34781271 694.40353811 C642.66756028 694.4035654 641.98730785 694.40359269 641.28644171 694.40362081 C619.6081282 694.40443946 597.92981611 694.40218513 576.25150305 694.39783895 C575.54831179 694.39769845 574.84512053 694.39755795 574.12062045 694.3974132 C562.70107818 694.39512327 551.28153595 694.39268436 539.86199371 694.39023285 C494.57513092 694.38052118 449.28827996 694.38096991 404.00141722 694.39069402 C392.59003329 694.39313639 381.17864935 694.39555849 369.76726538 694.39783895 C369.06462915 694.39797985 368.36199291 694.39812074 367.63806467 694.39826591 C345.98426122 694.4025783 324.33045875 694.40440682 302.67665488 694.40353811 C301.99687428 694.40351094 301.31709368 694.40348377 300.61671367 694.40345578 C285.6943593 694.40283082 270.77200503 694.40156354 255.84965076 694.3997171 C249.84569831 694.39897688 243.84174586 694.39828004 237.83779341 694.39758337 C236.52426354 694.39742521 235.21073366 694.39726706 233.85739985 694.39710411 C214.00811208 694.39482767 194.1588289 694.39749252 174.30954176 694.40254247 C151.74198209 694.40825529 129.17443545 694.40684354 106.6068774 694.39598098 C93.9714166 694.39009997 81.33598399 694.38973722 68.7005239 694.39727333 C60.26559827 694.40174995 51.83069529 694.39898173 43.39577302 694.39026379 C38.58645632 694.38549592 33.77719573 694.38390097 28.96788074 694.39107576 C24.59237556 694.39753693 20.21697627 694.39479067 15.84147881 694.38471444 C14.26880631 694.38270082 12.69612505 694.38403049 11.12345952 694.38912632 C-6.39627471 694.44186425 -19.61882571 691.61108445 -32.62455934 679.12995183 C-39.35790842 671.26364918 -44.74319785 661.24610533 -44.75336051 650.68318111 C-44.7566327 649.79115858 -44.7599049 648.89913605 -44.76327625 647.98008254 C-44.76179263 647.00224944 -44.760309 646.02441633 -44.75878042 645.01695192 C-44.76113265 643.97221717 -44.76348488 642.92748241 -44.76590839 641.85108903 C-44.77260944 638.3211438 -44.77213983 634.79123529 -44.77173036 631.26128423 C-44.7750283 628.71654443 -44.77875371 626.17180516 -44.78287184 623.62706655 C-44.791854 617.34794673 -44.79612076 611.06883793 -44.79839081 604.78971255 C-44.80135153 597.27060389 -44.81004819 589.7515046 -44.81880509 582.23240086 C-44.83965593 564.05703887 -44.85012033 545.88167526 -44.8589347 527.70630411 C-44.86314033 519.10915211 -44.86836243 510.51200082 -44.87361923 501.91484942 C-44.89151004 472.48982707 -44.90650634 443.06480452 -44.91393942 413.63977754 C-44.91441417 411.79222594 -44.91489006 409.94467434 -44.91536708 408.09712273 C-44.91560345 407.18089689 -44.91583983 406.26467105 -44.91608337 405.32068079 C-44.91728458 400.67857257 -44.91850002 396.03646435 -44.91972536 391.39435613 C-44.91996551 390.47311324 -44.92020566 389.55187035 -44.92045309 388.60271101 C-44.92834644 358.73219354 -44.95177869 328.86171577 -44.9842813 298.99121564 C-45.01857651 267.41567907 -45.03829027 235.84016573 -45.04158366 204.26461023 C-45.0420012 200.79851603 -45.04248076 197.33242183 -45.04300684 193.86632764 C-45.04313003 193.0128683 -45.04325322 192.15940896 -45.04338015 191.28008721 C-45.04571257 177.54324429 -45.06137488 163.80644747 -45.08184868 150.06962098 C-45.1021012 136.2622273 -45.1075867 122.45488901 -45.09807805 108.64748322 C-45.09286084 100.44465353 -45.09875088 92.24200819 -45.12061272 84.03920502 C-45.13570458 77.91360433 -45.12988466 71.78819066 -45.1159422 65.66259099 C-45.11355586 63.18473536 -45.11794253 60.70686207 -45.12977085 58.22903352 C-45.14485643 54.86031995 -45.13523919 51.49253059 -45.11954397 48.12383974 C-45.12976618 47.16239479 -45.13998838 46.20094985 -45.15052035 45.21037021 C-45.01921306 32.29257385 -39.3078437 22.53653536 -30.81987184 13.12995183 C-22.59168759 5.21959444 -11.37704233 0.00918941 0 0 Z M-0.62455934 47.12995183 C-0.82007314 49.8691142 -0.88857625 52.50695254 -0.870655 55.24720228 C-0.87296249 56.10076238 -0.87526998 56.95432248 -0.87764739 57.83374804 C-0.88298487 60.72399171 -0.87393438 63.61401736 -0.86506838 66.50424993 C-0.86594247 68.57983234 -0.86769491 70.65541453 -0.87025636 72.73099554 C-0.87476446 78.4705161 -0.86668545 84.20996272 -0.8567048 89.94947389 C-0.84800714 96.22030536 -0.85089166 102.49113312 -0.85234064 108.76196897 C-0.85328521 119.56277335 -0.84712233 130.36354825 -0.83571047 141.16434515 C-0.81938759 156.64043403 -0.81550603 172.11649647 -0.81376833 187.59259832 C-0.80325583 224.81338749 -0.77533377 262.0341701 -0.74955934 299.25495183 C-0.70830934 382.37370183 -0.66705934 465.49245183 -0.62455934 551.12995183 C311.55544066 551.12995183 623.73544066 551.12995183 945.37544066 551.12995183 C945.41669066 468.19682683 945.45794066 385.26370183 945.50044066 299.81745183 C945.52775267 260.46821477 945.52775267 260.46821477 945.55561644 220.32404363 C945.56230331 196.90745607 945.56230331 196.90745607 945.56632811 173.49086797 C945.56832272 162.33084498 945.57696638 151.17084673 945.58878751 140.01083153 C945.60066801 128.64171213 945.6049625 117.27261263 945.60233056 105.90348559 C945.60112042 99.7280419 945.60310146 93.55264388 945.61387092 87.37720847 C945.62353494 81.80205832 945.62413253 76.22698654 945.61724287 70.65183294 C945.61638898 68.62780884 945.61897504 66.60378001 945.62520581 64.57976532 C945.63315566 61.83795701 945.62895308 59.09643601 945.62153631 56.35463274 C945.62679036 55.55549342 945.63204441 54.75635411 945.63745768 53.93299846 C945.61394123 50.12548142 945.54033525 48.37729372 943.37544066 45.12995183 C940.51987964 44.67415447 940.51987964 44.67415447 937.08921343 44.75505501 C936.10452606 44.74893093 936.10452606 44.74893093 935.09994601 44.74268313 C932.87421075 44.73256686 930.6490917 44.74404596 928.42336851 44.75522172 C926.81512686 44.75239874 925.20688708 44.74826009 923.59865183 44.74291649 C919.1425594 44.73198425 914.68666337 44.73993871 910.23057787 44.75075053 C905.39665508 44.7592137 900.56276023 44.75038213 895.72883898 44.74368638 C887.24464211 44.73435966 878.76050435 44.73627613 870.27630812 44.74541891 C857.66039463 44.75897702 845.04452686 44.75546718 832.42861012 44.7484603 C809.90165364 44.73650983 787.37472507 44.74163642 764.84777012 44.75373858 C745.13454876 44.76425754 725.42133692 44.76881628 705.70811278 44.76744306 C703.74984637 44.76731702 703.74984637 44.76731702 701.75201903 44.76718842 C696.45307977 44.7668362 691.15414051 44.76645219 685.85520126 44.76602285 C671.04131478 44.76484109 656.22742837 44.7646464 641.41354185 44.76522577 C640.7388819 44.76525179 640.06422196 44.76527782 639.36911777 44.76530463 C617.86279575 44.76620366 596.35647717 44.77150467 574.85015684 44.77993333 C574.15234068 44.78020652 573.45452451 44.78047971 572.7355624 44.78076118 C561.4025803 44.78521516 550.06959831 44.78992979 538.73661632 44.79466007 C493.78516533 44.81340584 448.83373114 44.81982435 403.88227659 44.81427801 C401.04177803 44.81393102 398.20127946 44.81358541 395.36078089 44.81323972 C394.65848357 44.81315411 393.95618624 44.81306851 393.23260718 44.81298031 C385.45531295 44.81203423 377.67801871 44.81112251 369.90072447 44.81025255 C369.20332374 44.81017363 368.50592302 44.81009471 367.78738893 44.8100134 C330.16203192 44.80579364 292.53667682 44.81109481 254.91132075 44.81976384 C250.94050126 44.82067092 246.96968178 44.82157657 242.99886229 44.82247907 C240.3645079 44.82308018 237.73015351 44.8236888 235.09579913 44.82430498 C216.69823557 44.8285334 198.30067507 44.82910167 179.90311119 44.82719948 C156.19922506 44.82476099 132.49535532 44.82879201 108.79147369 44.84440949 C96.24323393 44.85248547 83.69502149 44.85504239 71.14678008 44.84976713 C62.77998984 44.84680479 54.41322389 44.85104464 46.04643947 44.86131571 C41.26937268 44.86697816 36.49236187 44.86939291 31.71529454 44.86314913 C27.37834036 44.85754852 23.04149544 44.86098316 18.70455237 44.8719479 C17.13685127 44.87427491 15.56914084 44.87317743 14.00144522 44.86842536 C11.88805075 44.86249734 9.77504108 44.86867378 7.66166788 44.87810284 C5.89960207 44.87864173 5.89960207 44.87864173 4.10193896 44.8791915 C1.22869436 44.8504484 1.22869436 44.8504484 -0.62455934 47.12995183 Z " fill="#FEFEFE" transform="translate(67.62455934286118,145.87004816532135)"/>
  <path d="M0 0 C356.4 0 712.8 0 1080 0 C1080 43.23 1080 86.46 1080 131 C1079.67 131 1079.34 131 1079 131 C1078.86464844 129.79988281 1078.72929688 128.59976563 1078.58984375 127.36328125 C1073.94010252 90.00240204 1055.29195832 55.90493151 1026 32 C1021.77482002 28.82022538 1017.44722248 25.85487978 1013 23 C1011.94296875 22.319375 1010.8859375 21.63875 1009.796875 20.9375 C997.10500881 13.23816885 977.21892522 2.7985059 962 4 C962.38671875 4.4125 962.7734375 4.825 963.171875 5.25 C968.01534678 10.6209786 972.10634431 15.92178568 972.5 23.375 C972.03683607 31.79879397 968.32711545 38.68546773 962.57421875 44.71484375 C948.16947415 57.50206012 929.75045462 65.11070639 912 72 C911.37174316 72.24959473 910.74348633 72.49918945 910.09619141 72.75634766 C896.2645062 78.20541365 881.78659082 81.5607179 867.39013672 85.1484375 C864.76536221 85.80775001 862.14810867 86.48339957 859.53515625 87.1875 C841.55210996 91.95648465 822.90751274 95.33155972 804.4987793 97.97485352 C799.96921759 98.63526238 795.51567047 99.51245639 791.03515625 100.453125 C782.72267654 102.16623281 774.36869691 103.1429569 765.9375 104.0625 C763.05043948 104.38371581 760.16381727 104.70871118 757.27734375 105.03515625 C756.56992538 105.1145192 755.86250702 105.19388214 755.13365173 105.27565002 C750.79382198 105.77008089 746.47652472 106.3526983 742.15625 107 C733.32293369 108.2926038 724.44908296 109.10992262 715.5625 109.9375 C714.64462708 110.02337372 713.72675415 110.10924744 712.78106689 110.19772339 C706.18861397 110.81244211 699.5946607 111.40949642 693 112 C692.19951233 112.07238892 691.39902466 112.14477783 690.57427979 112.21936035 C679.36934105 113.23044413 668.15804696 114.08201428 656.93115234 114.80993652 C654.92355183 114.94011452 652.91606935 115.07212222 650.90869141 115.20568848 C557.23993309 121.39945535 462.52471776 119.41901099 369 112 C368.01700928 111.92243469 367.03401855 111.84486938 366.02124023 111.76495361 C335.53238902 109.33812097 305.27004105 105.33624384 275 101 C273.72848083 100.81890686 273.72848083 100.81890686 272.43127441 100.63415527 C254.2467554 98.04059669 236.2734639 94.83590968 218.35839844 90.76171875 C215.01546739 90.00350816 211.66849026 89.26590443 208.3203125 88.53125 C172.99655597 80.69313834 129.73134121 70.90778647 102 46 C101.33226563 45.42507812 100.66453125 44.85015625 99.9765625 44.2578125 C94.54053709 39.28052341 91.49050277 34.16674521 90.62109375 26.78125 C90.37903669 19.97241919 90.90835573 15.49814699 95 10 C80.521564 14.136696 67.77260145 21.76424393 56 31 C55.44183594 31.43715332 54.88367187 31.87430664 54.30859375 32.32470703 C24.82276629 55.71326217 6.28782621 89.76684801 1.75 127.0625 C1.48421909 129.37385898 1.23675474 131.68541086 1 134 C0.67 134 0.34 134 0 134 C0 89.78 0 45.56 0 0 Z " fill="#424145" transform="translate(0,0)"/>
  <path d="M0 0 C0.86753906 0.66386719 1.73507812 1.32773437 2.62890625 2.01171875 C36.61301238 28.77358399 56.33425302 66.17533761 62.60961914 108.62817383 C67.06351096 147.09765471 57.6058693 190.10011295 33.4921875 220.94140625 C32.66976563 221.95074219 31.84734375 222.96007812 31 224 C30.56333008 224.5451123 30.12666016 225.09022461 29.67675781 225.65185547 C14.75261799 244.2237602 -2.61757778 259.32909509 -24 270 C-24.69673828 270.34901367 -25.39347656 270.69802734 -26.11132812 271.05761719 C-61.81328277 288.6172821 -105.91461355 292.771695 -144.03222656 280.54003906 C-174.61570064 270.04161256 -202.32298263 251.89511849 -222 226 C-222.52722656 225.33871094 -223.05445313 224.67742187 -223.59765625 223.99609375 C-234.05956295 210.63275159 -241.98805835 195.16475579 -247.75 179.25 C-248.01949463 178.52611084 -248.28898926 177.80222168 -248.56665039 177.05639648 C-253.76106349 162.04587044 -255.65878525 146.71722091 -255.46655273 130.90795898 C-255.43738167 128.30192876 -255.44605982 125.69792428 -255.45898438 123.09179688 C-255.40410457 80.47599979 -236.86612978 42.74680795 -207.6875 12.375 C-152.33785922 -41.21440485 -61.03878658 -48.00494043 0 0 Z " fill="#00BE15" transform="translate(909,308)"/>
  <path d="M0 0 C2.94609998 0.97972862 5.91835672 1.86593831 8.89306641 2.75439453 C20.90339323 6.4639132 31.95256617 10.90747184 43.08056641 16.69189453 C44.85034712 17.54824004 46.62107474 18.40263347 48.39306641 19.25439453 C52.45543587 21.2789414 56.14141303 23.6557274 59.87353516 26.23095703 C62.01592929 27.64910819 64.18593472 28.86556195 66.45556641 30.06689453 C72.03453711 33.10733705 77.01857176 36.86861551 82.08056641 40.69189453 C83.13759766 41.47951172 84.19462891 42.26712891 85.28369141 43.07861328 C91.68030874 47.88486937 97.71607694 52.92834481 103.58447266 58.37939453 C105.79623212 60.42847372 108.04478917 62.41388934 110.33056641 64.37939453 C116.78807872 70.0083462 122.54733391 76.16105618 128.08056641 82.69189453 C128.74701172 83.46919922 129.41345703 84.24650391 130.10009766 85.04736328 C148.63407804 107.12116695 167.67127619 134.91173881 175.25830078 163.03491211 C176.13254369 165.85984846 177.24980119 168.46941564 178.44775391 171.17236328 C183.10611048 182.23606569 185.42538838 194.02214277 188.08056641 205.69189453 C188.31227539 206.65546875 188.54398438 207.61904297 188.78271484 208.61181641 C195.23980355 236.01215894 194.57891549 269.17107129 189.54150391 296.84033203 C189.09956243 299.57437675 188.87669374 302.24191049 188.70556641 305.00439453 C188.29024911 310.23739242 187.01542213 315.1283641 185.58398438 320.15527344 C184.57202603 323.73194481 183.81039202 327.19687743 183.33056641 330.87939453 C181.98848509 339.01728761 178.26444295 346.56632667 175.10644531 354.13134766 C174.05160471 356.76418161 173.10849348 359.42032954 172.17431641 362.09814453 C170.04444158 368.03129266 167.32071929 373.58416215 164.45556641 379.19189453 C163.96572266 380.16642578 163.47587891 381.14095703 162.97119141 382.14501953 C161.13093437 385.78530941 159.3453856 389.29466574 157.08056641 392.69189453 C152.05345481 392.1201838 148.26369931 389.78709635 143.95556641 387.31689453 C143.17221924 386.8742627 142.38887207 386.43163086 141.58178711 385.97558594 C139.07659176 384.55591719 136.57804575 383.12508793 134.08056641 381.69189453 C133.26023926 381.22332031 132.43991211 380.75474609 131.59472656 380.27197266 C121.64707518 374.58534697 111.79076434 368.77602214 102.08056641 362.69189453 C102.6756602 358.43227579 104.19578951 355.40455 106.33056641 351.69189453 C113.08782501 339.38845422 117.04991086 326.07758087 121.08056641 312.69189453 C121.46470703 311.43376953 121.84884766 310.17564453 122.24462891 308.87939453 C123.30943801 305.17288346 124.24986121 301.45646154 125.08056641 297.69189453 C125.23154785 297.01755371 125.3825293 296.34321289 125.53808594 295.6484375 C130.89849601 270.21106542 130.80889613 239.79930343 124.08056641 214.69189453 C123.63801514 212.98259766 123.63801514 212.98259766 123.18652344 211.23876953 C118.97771277 194.57169114 118.97771277 194.57169114 112.19628906 178.85302734 C111.07144103 176.67421886 110.21480505 174.4999705 109.39306641 172.19189453 C100.51169543 149.39517712 84.69131748 130.24566784 68.08056641 112.69189453 C67.44248047 112.01126953 66.80439453 111.33064453 66.14697266 110.62939453 C51.68456467 95.64675604 33.43874044 84.2335878 15.08056641 74.69189453 C14.06506714 74.16269409 14.06506714 74.16269409 13.02905273 73.62280273 C6.6974283 70.38491023 0.12001595 67.9301092 -6.56689453 65.53466797 C-8.17880441 64.95721748 -9.78874698 64.37425421 -11.39697266 63.78662109 C-23.08447889 59.54026446 -34.43772283 56.40087262 -46.80444336 54.94238281 C-48.81952362 54.70372734 -50.82883362 54.41776332 -52.83740234 54.12939453 C-59.70136171 53.38353764 -66.63168264 53.54362809 -73.52758789 53.56152344 C-75.95188815 53.56682878 -78.37599874 53.56158339 -80.80029297 53.55517578 C-94.6510396 53.54652646 -108.43256493 53.55403572 -121.91943359 57.06689453 C-122.78181641 57.27572266 -123.64419922 57.48455078 -124.53271484 57.69970703 C-128.54706385 58.6987256 -132.42722015 59.82611523 -136.29052734 61.30908203 C-139.02390211 62.35064787 -141.15843423 62.98147203 -143.98193359 63.44189453 C-150.43782539 64.75552817 -156.23671773 67.9673245 -162.11474609 70.83862305 C-163.83129919 71.65022384 -165.58211117 72.38816455 -167.33349609 73.12158203 C-178.95157324 78.20923673 -189.95846117 84.86643993 -199.91943359 92.69189453 C-201.08441186 93.5908329 -202.24980248 94.48923705 -203.41552734 95.38720703 C-215.94717667 105.07972666 -215.94717667 105.07972666 -226.95458984 116.42236328 C-228.39756705 118.08910236 -229.89280371 119.71096278 -231.41552734 121.30517578 C-241.08260394 131.438466 -248.57225212 142.80917346 -255.91943359 154.69189453 C-260.0225399 154.12569527 -262.6284184 152.81402868 -266.04443359 150.50439453 C-270.58711264 147.52041844 -275.1929812 144.84627671 -279.98193359 142.28173828 C-283.25973846 140.50771358 -286.49915829 138.67116396 -289.73193359 136.81689453 C-290.59999634 136.31911499 -290.59999634 136.31911499 -291.4855957 135.8112793 C-292.67707696 135.1275511 -293.86839954 134.44354632 -295.05957031 133.75927734 C-298.30172754 131.89859063 -301.5483548 130.04572834 -304.79443359 128.19189453 C-305.97934858 127.51484472 -307.16424625 126.8377646 -308.34912109 126.16064453 C-309.62142578 125.43361328 -309.62142578 125.43361328 -310.91943359 124.69189453 C-308.79518918 110.13304868 -292.22709997 93.60724873 -282.91943359 82.69189453 C-282.27232422 81.93263672 -281.62521484 81.17337891 -280.95849609 80.39111328 C-270.30939907 68.25277472 -258.83405052 56.41861163 -245.91943359 46.69189453 C-245.3714209 46.27278809 -244.8234082 45.85368164 -244.25878906 45.421875 C-234.84475901 38.23809501 -225.09612056 31.74283054 -214.91943359 25.69189453 C-214.27393555 25.30791504 -213.6284375 24.92393555 -212.96337891 24.52832031 C-192.57496339 12.50950825 -171.09280397 2.59668748 -147.88818359 -2.40966797 C-144.22876382 -3.20664737 -140.68446072 -4.25889727 -137.10693359 -5.37060547 C-94.62525031 -17.7590642 -41.49502359 -14.00810671 0 0 Z " fill="#F7E307" transform="translate(437.91943359375,244.30810546875)"/>
  <path d="M0 0 C0.78500038 -0.00235223 1.57000076 -0.00470446 2.37878904 -0.00712797 C5.00717399 -0.01378079 7.63550907 -0.01336088 10.26390171 -0.01294994 C12.16832334 -0.01625088 14.07274428 -0.01997693 15.97716433 -0.02409142 C21.20938879 -0.03409332 26.44160178 -0.0378253 31.67383444 -0.04048073 C37.31756521 -0.04438913 42.96128695 -0.05396707 48.60501194 -0.0626936 C62.2337313 -0.08244237 75.86245138 -0.09252199 89.49118146 -0.10142139 C95.91209117 -0.10580669 102.33300005 -0.11117286 108.75390911 -0.11641026 C130.1031219 -0.13342058 151.45233351 -0.14793923 172.80155182 -0.155159 C174.18158532 -0.15563375 175.56161883 -0.15610964 176.94165233 -0.15658666 C177.62600239 -0.15682303 178.31035245 -0.15705941 179.01544039 -0.15730295 C182.48250257 -0.15850411 185.94956475 -0.15971957 189.41662693 -0.16094494 C190.44868666 -0.16130516 190.44868666 -0.16130516 191.50159608 -0.16167267 C213.79934152 -0.16956204 236.09703372 -0.19298741 258.39475592 -0.22550088 C281.98635342 -0.25983801 305.57790832 -0.27951261 329.16953379 -0.28280324 C342.02274948 -0.28496675 354.87588688 -0.29369232 367.72907925 -0.31926441 C378.67597865 -0.3409938 389.62278075 -0.34901074 400.56969928 -0.33929763 C406.15141564 -0.33475954 411.73293131 -0.33661081 417.31462002 -0.35605907 C422.4329451 -0.37373825 427.55092381 -0.37265444 432.66925282 -0.35716178 C434.51252352 -0.35479294 436.35581852 -0.35907133 438.19905221 -0.37099043 C464.76141417 -0.53199706 487.70965623 8.13327498 506.8900156 26.63422108 C514.55410952 34.66807391 526.9525156 49.32376754 526.9525156 61.13422108 C326.3125156 61.13422108 125.6725156 61.13422108 -81.0474844 61.13422108 C-80.18383961 55.95235234 -78.98688639 52.43066828 -76.5474844 47.94672108 C-76.19291164 47.29107166 -75.83833889 46.63542225 -75.47302151 45.95990467 C-72.0083752 39.75156141 -67.84257621 34.38323724 -63.0474844 29.13422108 C-62.35010159 28.35562733 -61.65271877 27.57703358 -60.93420315 26.77484608 C-45.16249212 10.05164242 -23.00757524 -0.04741907 0 0 Z " fill="#FDFDFD" transform="translate(317.0474843978882,940.8657789230347)"/>
  <path d="M0 0 C0 20.79 0 41.58 0 63 C2.97 63 5.94 63 9 63 C9 63.33 9 63.66 9 64 C7.83766846 64.03440186 6.67533691 64.06880371 5.4777832 64.10424805 C-26.98025857 64.77289402 -26.98025857 64.77289402 -58.26953125 72.61328125 C-61.03224672 73.64025925 -63.21723365 74.28486704 -66.0625 74.75 C-72.51839179 76.06363363 -78.31728414 79.27542997 -84.1953125 82.14672852 C-85.91186559 82.95832931 -87.66267757 83.69627001 -89.4140625 84.4296875 C-101.03213965 89.5173422 -112.03902757 96.1745454 -122 104 C-123.16497827 104.89893837 -124.33036888 105.79734252 -125.49609375 106.6953125 C-138.02774307 116.38783213 -138.02774307 116.38783213 -149.03515625 127.73046875 C-150.47813345 129.39720783 -151.97337012 131.01906825 -153.49609375 132.61328125 C-163.16317034 142.74657147 -170.65281853 154.11727893 -178 166 C-182.10310631 165.43380074 -184.70898481 164.12213415 -188.125 161.8125 C-192.66767905 158.82852391 -197.2735476 156.15438218 -202.0625 153.58984375 C-205.34030486 151.81581904 -208.5797247 149.97926943 -211.8125 148.125 C-212.68056274 147.62722046 -212.68056274 147.62722046 -213.56616211 147.11938477 C-214.75764337 146.43565657 -215.94896595 145.75165178 -217.14013672 145.06738281 C-220.38229395 143.2066961 -223.62892121 141.35383381 -226.875 139.5 C-228.05991499 138.82295019 -229.24481266 138.14587007 -230.4296875 137.46875 C-231.70199219 136.74171875 -231.70199219 136.74171875 -233 136 C-230.87575559 121.44115415 -214.30766637 104.9153542 -205 94 C-204.35289062 93.24074219 -203.70578125 92.48148437 -203.0390625 91.69921875 C-192.38996548 79.56088019 -180.91461693 67.7267171 -168 58 C-167.4519873 57.58089355 -166.90397461 57.16178711 -166.33935547 56.72998047 C-156.92532542 49.54620048 -147.17668697 43.05093601 -137 37 C-136.35450195 36.61602051 -135.70900391 36.23204102 -135.04394531 35.83642578 C-114.6555298 23.81761372 -93.17337038 13.90479294 -69.96875 8.8984375 C-66.30933022 8.1014581 -62.76502713 7.0492082 -59.1875 5.9375 C-39.96065482 0.33058992 -19.87000773 0 0 0 Z " fill="#80C200" transform="translate(360,233)"/>
  <path d="M0 0 C3.01072502 3.67977503 5.11717786 7.74537384 7.3125 11.9375 C7.90635498 13.06877319 7.90635498 13.06877319 8.51220703 14.22290039 C13.09514748 23.01942942 17.5833659 31.72501159 20.17749023 41.3425293 C21.05187472 44.16760352 22.1691647 46.77736297 23.3671875 49.48046875 C28.02554407 60.54417116 30.34482197 72.33024824 33 84 C33.23170898 84.96357422 33.46341797 85.92714844 33.70214844 86.91992188 C40.15923715 114.32026441 39.49834909 147.47917675 34.4609375 175.1484375 C34.01899603 177.88248222 33.79612733 180.55001596 33.625 183.3125 C33.20968271 188.54549789 31.93485572 193.43646957 30.50341797 198.46337891 C29.49145962 202.04005028 28.72982562 205.5049829 28.25 209.1875 C26.90791868 217.32539308 23.18387654 224.87443214 20.02587891 232.43945312 C18.9710383 235.07228708 18.02792707 237.72843501 17.09375 240.40625 C14.96387517 246.33939813 12.24015289 251.89226762 9.375 257.5 C8.88515625 258.47453125 8.3953125 259.4490625 7.890625 260.453125 C6.05036796 264.09341488 4.2648192 267.6027712 2 271 C-3.02711159 270.42828927 -6.81686709 268.09520182 -11.125 265.625 C-12.30002075 264.96105225 -12.30002075 264.96105225 -13.4987793 264.28369141 C-16.00397464 262.86402266 -18.50252066 261.4331934 -21 260 C-22.23049072 259.29713867 -22.23049072 259.29713867 -23.48583984 258.58007812 C-33.43349123 252.89345244 -43.28980207 247.08412761 -53 241 C-52.40490621 236.74038126 -50.8847769 233.71265547 -48.75 230 C-41.9927414 217.69655969 -38.03065555 204.38568634 -34 191 C-33.61585938 189.741875 -33.23171875 188.48375 -32.8359375 187.1875 C-31.7711284 183.48098893 -30.83070519 179.76456701 -30 176 C-29.77352783 174.98848877 -29.77352783 174.98848877 -29.54248047 173.95654297 C-24.18207039 148.51917089 -24.27167028 118.1074089 -31 93 C-31.29503418 91.86046875 -31.59006836 90.7209375 -31.89404297 89.546875 C-36.09551784 72.90037637 -36.09551784 72.90037637 -42.85986328 57.19775391 C-44.05791264 54.88836625 -45.01202522 52.55510935 -45.9375 50.125 C-48.22336585 44.21749483 -51.10021876 38.6255756 -54 33 C-52.92105469 32.40574219 -51.84210937 31.81148438 -50.73046875 31.19921875 C-37.88513626 24.10509524 -25.08596926 16.91748002 -12.5390625 9.3046875 C-11.84514404 8.88388916 -11.15122559 8.46309082 -10.4362793 8.02954102 C-9.13557631 7.23755318 -7.83741117 6.44137718 -6.54223633 5.64038086 C-2.21712803 3 -2.21712803 3 0 3 C0 2.01 0 1.02 0 0 Z " fill="#FD840E" transform="translate(593,366)"/>
  <path d="M0 0 C0.495 0.99 0.495 0.99 1 2 C2.6512451 2.70399704 4.32110979 3.36474424 6 4 C18.29575477 10.27783252 30.16813887 17.47729827 42.05126953 24.49902344 C46.34711525 27.03640201 50.66253557 29.53437485 55 32 C52.93559721 37.57946701 50.10315848 42.78429527 47.36523438 48.0546875 C45.04804293 52.60424808 43.16233577 57.09349799 41.6484375 61.97192383 C40.99854461 64.00455193 40.23348584 65.95812557 39.4375 67.9375 C38.35603896 70.77729027 37.64881692 73.5080347 37.1015625 76.49609375 C35.74807486 83.49200118 33.91740362 90.36047817 32.12304688 97.25390625 C31.73536133 98.77177734 31.73536133 98.77177734 31.33984375 100.3203125 C31.10644287 101.22023926 30.87304199 102.12016602 30.63256836 103.04736328 C29.18047525 109.82529231 28.82496553 116.47326679 28.76171875 123.37890625 C28.75201553 124.26035309 28.74231232 125.14179993 28.73231506 126.04995728 C28.70747725 128.8875182 28.69480144 131.72484136 28.6875 134.5625 C28.68357239 136.01204575 28.68357239 136.01204575 28.67956543 137.49087524 C28.675315 152.1055232 29.50078935 165.75946237 33 180 C33.29589658 181.38191355 33.58774677 182.76470146 33.875 184.1484375 C37.444301 200.60620424 43.63775865 216.43101576 51.85009766 231.09887695 C52.26050293 231.83323975 52.6709082 232.56760254 53.09375 233.32421875 C53.64579102 234.2846106 53.64579102 234.2846106 54.20898438 235.2644043 C55 237 55 237 55 240 C54.26064209 240.40726318 54.26064209 240.40726318 53.50634766 240.82275391 C41.46367728 247.45298935 41.46367728 247.45298935 29.625 254.4375 C25.39004433 256.95830695 21.0767875 259.34016351 16.76806641 261.73217773 C13.16592015 263.74174629 9.67569114 265.82196045 6.25 268.125 C3 270 3 270 0.93554688 269.82006836 C-2.52142228 268.35539134 -3.81220675 264.74196464 -5.5 261.5625 C-6.09699707 260.46760254 -6.09699707 260.46760254 -6.70605469 259.35058594 C-9.11492824 254.86448095 -11.30255276 250.36922274 -13.03686523 245.57470703 C-14.06796136 242.8183218 -15.20701222 240.12414487 -16.36328125 237.41796875 C-30.57795087 203.38671268 -35.21934472 168.13519154 -35.3125 131.5625 C-35.31578308 130.50461273 -35.31906616 129.44672546 -35.32244873 128.35678101 C-35.35823808 92.6960689 -35.35823808 92.6960689 -29 77 C-28.61290365 74.77631511 -28.26346513 72.54596475 -27.9375 70.3125 C-26.62681456 62.53620234 -24.25405951 55.19477503 -21.6875 47.75 C-21.32068115 46.67403564 -20.9538623 45.59807129 -20.57592773 44.48950195 C-18.26838051 37.95086815 -15.54918079 31.80421006 -12.33691406 25.65893555 C-11.08267023 23.16441956 -10.03879354 20.67623902 -9.0625 18.0625 C-6.63876133 11.74015188 -3.29283302 5.90120075 0 0 Z " fill="#008B10" transform="translate(126,367)"/>
  <path d="M0 0 C1.08120531 0.00436926 1.08120531 0.00436926 2.18425316 0.00882679 C3.3248459 0.00754515 3.3248459 0.00754515 4.48848093 0.00623763 C7.05583184 0.00458053 9.62311851 0.01010792 12.19046348 0.01555592 C14.02309998 0.01583777 15.8557366 0.0156801 17.68837303 0.01511341 C22.67989996 0.01482535 27.67140309 0.02072354 32.66292447 0.02768737 C37.87331041 0.0339194 43.08369683 0.03452459 48.29408592 0.03571278 C58.16802959 0.03882654 68.04196225 0.04704053 77.91590106 0.05706227 C89.15391935 0.06822202 100.39193815 0.07373351 111.6299606 0.0787577 C134.75421963 0.08922311 157.87846887 0.10682341 181.00271934 0.12908131 C183.19752031 5.53480083 185.35258766 10.92884625 187.20096153 16.46501881 C187.58105369 17.59899098 187.96114586 18.73296314 188.35275596 19.90129811 C188.74771263 21.09021656 189.14266929 22.27913502 189.54959434 23.50408131 C189.96565941 24.75036305 190.38172447 25.99664479 190.81039757 27.28069264 C191.68292935 29.89536465 192.55332448 32.51073507 193.42215294 35.1266399 C194.53663989 38.48159349 195.65658621 41.83469562 196.77809089 45.18730885 C197.85066719 48.39609943 198.91868701 51.60640017 199.98709434 54.81658131 C200.39014793 56.02169361 200.79320152 57.22680592 201.20846885 58.46843678 C201.57595237 59.57719166 201.9434359 60.68594654 202.32205528 61.82830006 C202.64752342 62.80629566 202.97299156 63.78429127 203.30832237 64.79192311 C204.00271934 67.12908131 204.00271934 67.12908131 204.00271934 69.12908131 C127.44271934 69.12908131 50.88271934 69.12908131 -27.99728066 69.12908131 C-24.621422 56.75093291 -24.621422 56.75093291 -22.928433 51.66374928 C-22.551493 50.52662495 -22.174553 49.38950062 -21.78619057 48.21791798 C-21.38920967 47.03102375 -20.99222878 45.84412953 -20.58321816 44.62126881 C-20.16810982 43.37403034 -19.75300148 42.12679188 -19.3253141 40.84175831 C-18.45489171 38.22756996 -17.58234416 35.61410382 -16.70821816 33.00115162 C-15.58659313 29.64778353 -14.47045805 26.29261708 -13.35585266 22.93691021 C-12.28871232 19.72655898 -11.21702616 16.51773172 -10.14571816 13.30876881 C-9.7446888 12.10163227 -9.34365944 10.89449574 -8.93047768 9.65077931 C-8.559842 8.54517658 -8.18920632 7.43957386 -7.80733925 6.30046803 C-7.31794365 4.83466801 -7.31794365 4.83466801 -6.81866127 3.33925587 C-5.37613252 -0.54230682 -3.94227937 0.01207761 0 0 Z " fill="#FAFAFA" transform="translate(451.9972806572914,855.8709186911583)"/>
  <path d="M0 0 C5.09473426 3.07606597 9.40478922 7.27686765 11.3125 13 C11.55078125 15.19921875 11.55078125 15.19921875 11.625 17.6875 C11.68107422 18.89986328 11.68107422 18.89986328 11.73828125 20.13671875 C10.65207726 27.44119147 6.23358361 32.66020266 1.09448242 37.65625 C0.48091385 38.26879639 -0.13265472 38.88134277 -0.76481628 39.51245117 C-2.77801339 41.51781972 -4.80488078 43.50874625 -6.83203125 45.5 C-8.24538994 46.90334152 -9.65778406 48.30765509 -11.06925964 49.71289062 C-14.7782629 53.40102251 -18.4986733 57.0774206 -22.22210693 60.75097656 C-28.1729627 66.6264122 -34.10527578 72.52058324 -40.03946495 78.4128418 C-42.10292694 80.45874962 -44.17062968 82.50028655 -46.23921204 84.54101562 C-51.65404922 89.89399755 -57.0118917 95.20900617 -61.94026184 101.01974487 C-66.07842305 105.70978378 -70.60094976 110.05599197 -75.02734375 114.47265625 C-76.11933191 115.56531989 -77.21117175 116.65813178 -78.3028717 117.75108337 C-80.57977122 120.02944838 -82.85844653 122.30601783 -85.13842773 124.58129883 C-88.04092441 127.47809895 -90.93890706 130.3793668 -93.83556271 133.28200626 C-96.0858543 135.53593465 -98.33855092 137.78744726 -100.59195137 140.03826714 C-101.66065128 141.10630638 -102.72862674 142.17507108 -103.79582024 143.24461555 C-109.04615655 148.50398149 -114.30386701 153.70425499 -119.98683167 158.50120544 C-121.86912134 160.16006241 -123.58633037 161.93028136 -125.3125 163.75 C-130.96122092 169.373447 -135.67687832 170.34366011 -143.4921875 170.59375 C-150.77168815 169.24107995 -156.26352849 163.86908337 -161.33129883 158.76025391 C-161.94212311 158.15629288 -162.55294739 157.55233185 -163.18228149 156.93006897 C-165.17737221 154.95311843 -167.16134798 152.96545257 -169.14453125 150.9765625 C-170.53802252 149.58763772 -171.93188346 148.19908375 -173.32609558 146.81088257 C-176.23668668 143.90919641 -179.14157205 141.00194214 -182.04272461 138.09082031 C-185.7541847 134.3678485 -189.48130471 130.66101004 -193.21306324 126.95839882 C-196.09148578 124.09834721 -198.96051474 121.22901543 -201.82691002 118.35691452 C-203.1973146 116.98635697 -204.57081144 115.61888387 -205.94748878 114.25462723 C-207.87165113 112.34539666 -209.78255261 110.42378009 -211.69067383 108.49853516 C-212.25641617 107.94246078 -212.82215851 107.38638641 -213.40504456 106.8134613 C-218.45773092 101.66570484 -221.10813973 96.45292558 -221.1875 89.0625 C-221.02634817 83.2097587 -219.67325133 79.30751772 -215.6875 75 C-211.02426134 71.36267384 -207.37118521 69.84483783 -201.5 69.6875 C-200.59894531 69.65011719 -199.69789063 69.61273438 -198.76953125 69.57421875 C-190.23806071 70.75283762 -184.96549465 76.21129399 -179.27734375 82.16015625 C-178.12063927 83.33958046 -178.12063927 83.33958046 -176.94056702 84.54283142 C-174.4920901 87.03989827 -172.05705012 89.5494378 -169.625 92.0625 C-166.41661274 95.3775267 -163.19506101 98.67891298 -159.96484375 101.97265625 C-159.23861313 102.73208023 -158.51238251 103.49150421 -157.7641449 104.27394104 C-152.73335829 109.40045278 -147.85898063 113.38434512 -140.3125 113.5 C-129.82891762 112.87411414 -122.85797957 104.71266637 -115.9387207 97.6418457 C-114.89385287 96.58928688 -113.84806005 95.53764561 -112.80142212 94.48684692 C-110.56290524 92.23575739 -108.33073712 89.97862579 -106.10335732 87.71651649 C-102.57937995 84.13815545 -99.03993145 80.57536478 -95.49809265 77.01469421 C-87.98677387 69.45911543 -80.49255021 61.88668418 -73 54.3125 C-64.89933024 46.12365933 -56.79574507 37.93783188 -48.67252415 29.77135152 C-45.15349988 26.2324254 -41.64445125 22.68398477 -38.14278185 19.12788928 C-35.96363234 16.91887773 -33.77620489 14.71820719 -31.58646011 12.51970291 C-30.574331 11.50009463 -29.56566132 10.4770386 -28.56077766 9.45028877 C-27.18673754 8.04730355 -25.79896826 6.65780385 -24.41059875 5.26899719 C-23.25284675 4.09792152 -23.25284675 4.09792152 -22.07170582 2.90318775 C-15.68899757 -2.19179695 -7.55434708 -2.0486365 0 0 Z " fill="#141137" transform="translate(917.6875,351)"/>
  <path d="M0 0 C1.77819024 -0.0070656 3.55637447 -0.0158133 5.33454895 -0.02610779 C10.14455063 -0.0485396 14.95422229 -0.0456766 19.76425624 -0.03678632 C23.78753422 -0.03166293 27.81075092 -0.03897994 31.83402258 -0.04625839 C41.32885639 -0.06323768 50.82352941 -0.0597114 60.31835938 -0.04296875 C70.09727419 -0.0260476 79.8757426 -0.04188641 89.65460867 -0.07419163 C98.06679989 -0.10092393 106.47885246 -0.10815375 114.89108187 -0.09967655 C119.90817555 -0.09475818 124.92500072 -0.09690391 129.94206047 -0.11746407 C134.66107581 -0.13587853 139.37945117 -0.1297923 144.09843254 -0.10526466 C145.82451054 -0.1002751 147.5506378 -0.1036981 149.27667618 -0.11641312 C159.63444558 -0.18664525 168.51585072 0.12099086 176.55390835 7.47727108 C182.38316348 13.48380559 184.54451424 19.24175708 184.80493164 27.53344727 C184.53702968 36.06344567 182.2036996 41.50258656 176.40258789 47.77172852 C170.52661207 53.01938217 164.01688952 54.65548812 156.29623413 54.68061829 C155.19935522 54.68613332 155.19935522 54.68613332 154.08031714 54.69175977 C151.62311777 54.70279736 149.16596069 54.7066406 146.70874023 54.71044922 C144.94952256 54.71671391 143.19030621 54.72336071 141.43109131 54.73036194 C135.64685997 54.75140736 129.86262835 54.76176604 124.07836914 54.77172852 C122.08657441 54.77577615 120.09477982 54.77989308 118.10298538 54.7840786 C108.74361595 54.80313278 99.38425442 54.81736229 90.02486932 54.82569057 C79.22588003 54.83545866 68.42709595 54.8617661 57.62817895 54.90219146 C49.27900055 54.932372 40.9298809 54.94716136 32.58064902 54.95047158 C27.59536425 54.95282022 22.61029866 54.96175628 17.62507248 54.98693275 C12.93170184 55.01025178 8.23869406 55.0144313 3.54528046 55.00417137 C1.82683478 55.0036768 0.10837102 55.00997395 -1.61001968 55.02372742 C-12.9880949 55.10966532 -22.33596611 54.43933051 -30.99584961 46.26391602 C-36.82173576 39.85977813 -38.25710228 33.91483657 -38.09155273 25.34863281 C-37.64881689 16.83703623 -34.58996172 12.17191831 -28.83959961 6.17407227 C-19.83688904 -0.33391128 -10.66957182 -0.04463682 0 0 Z " fill="#08080C" transform="translate(466.570068359375,747.466552734375)"/>
  <path d="M0 0 C8.98822814 4.51245739 16.96352708 10.01212701 25 16 C25.56541504 16.41830078 26.13083008 16.83660156 26.71337891 17.26757812 C33.63161767 22.40351141 40.18517382 27.81814041 46.50390625 33.6875 C48.71566572 35.73657919 50.96422276 37.72199481 53.25 39.6875 C59.70751231 45.31645167 65.46676751 51.46916165 71 58 C71.66644531 58.77730469 72.33289063 59.55460937 73.01953125 60.35546875 C79.38724184 67.9393547 85.05964039 75.96069057 90.68310547 84.10449219 C91.80490706 85.7191877 92.94900429 87.31835605 94.09765625 88.9140625 C94.64292969 89.68492187 95.18820312 90.45578125 95.75 91.25 C96.19859375 91.87390625 96.6471875 92.4978125 97.109375 93.140625 C98.29638764 95.6187742 98.30667623 97.27697605 98 100 C96.4621582 101.45043945 96.4621582 101.45043945 94.30078125 102.61328125 C93.50994141 103.05260986 92.71910156 103.49193848 91.90429688 103.94458008 C91.04900391 104.39599365 90.19371094 104.84740723 89.3125 105.3125 C87.55775496 106.27972982 85.80385068 107.2484865 84.05078125 108.21875 C83.18662598 108.69054687 82.3224707 109.16234375 81.43212891 109.6484375 C78.21717333 111.43502594 75.11370254 113.3546701 72 115.3125 C67.27560928 118.25025565 62.48901229 120.99597884 57.578125 123.609375 C55.84166549 124.54601073 54.12270318 125.51574419 52.421875 126.515625 C51.62265625 126.98484375 50.8234375 127.4540625 50 127.9375 C49.29875 128.35902344 48.5975 128.78054688 47.875 129.21484375 C46 130 46 130 43 129 C41.79248047 127.50048828 41.79248047 127.50048828 40.6171875 125.5703125 C40.17705322 124.86293945 39.73691895 124.15556641 39.28344727 123.42675781 C38.81865967 122.66717773 38.35387207 121.90759766 37.875 121.125 C30.17597752 108.91319517 20.892195 98.45379271 11 88 C10.36191406 87.319375 9.72382813 86.63875 9.06640625 85.9375 C1.64543872 78.24959119 -6.9466446 71.92802204 -15.625 65.75 C-16.31706543 65.2547583 -17.00913086 64.7595166 -17.72216797 64.24926758 C-22.63101909 60.79985164 -27.70581194 57.81924392 -33 55 C-31.515 54.505 -31.515 54.505 -30 54 C-29.28047425 52.01840288 -28.62330473 50.01393537 -28 48 C-26.88596651 45.86749962 -25.71399298 43.76472159 -24.5 41.6875 C-24.15179199 41.08848877 -23.80358398 40.48947754 -23.44482422 39.87231445 C-22.30249109 37.91133439 -21.151774 35.95544784 -20 34 C-19.20033817 32.6355237 -18.40086173 31.27093874 -17.6015625 29.90625 C-15.51565427 26.35002883 -13.42196278 22.79845065 -11.32617188 19.24804688 C-9.0051241 15.31354616 -6.69046675 11.37528679 -4.375 7.4375 C-3.52867304 5.99868191 -2.68232148 4.55987829 -1.8359375 3.12109375 C-0.92714844 1.57615234 -0.92714844 1.57615234 0 0 Z " fill="#FDBA05" transform="translate(495,269)"/>
  <path d="M0 0 C0 20.79 0 41.58 0 63 C2.97 63 5.94 63 9 63 C9 63.33 9 63.66 9 64 C7.83766846 64.03440186 6.67533691 64.06880371 5.4777832 64.10424805 C-26.98025857 64.77289402 -26.98025857 64.77289402 -58.26953125 72.61328125 C-61.03224672 73.64025925 -63.21723365 74.28486704 -66.0625 74.75 C-72.5115981 76.06225127 -78.30360274 79.26898156 -84.17553711 82.13696289 C-86.00883405 83.00417883 -87.86015171 83.8021549 -89.73046875 84.5859375 C-92.22293837 85.66392316 -94.40671925 86.74613492 -96.6875 88.1875 C-100 90 -100 90 -104 90 C-105.39614403 87.52100787 -106.79191329 85.04180586 -108.1875 82.5625 C-108.60386719 81.82330322 -109.02023438 81.08410645 -109.44921875 80.32250977 C-111.48556124 76.70442233 -113.50942603 73.08102408 -115.5 69.4375 C-117.72183976 65.42434999 -120.07674158 61.49483517 -122.4375 57.5625 C-122.82470215 56.91410156 -123.2119043 56.26570313 -123.61083984 55.59765625 C-125.34465014 52.70431923 -127.10087169 49.84596347 -128.94921875 47.0234375 C-129.50222656 46.17007813 -130.05523437 45.31671875 -130.625 44.4375 C-131.11226562 43.71433594 -131.59953125 42.99117188 -132.1015625 42.24609375 C-133.39733107 39.00667231 -133.16197764 37.2785912 -132 34 C-129.79753305 32.35206598 -128.00849617 31.27674798 -125.5625 30.125 C-124.89726318 29.79258301 -124.23202637 29.46016602 -123.54663086 29.11767578 C-121.37744259 28.04852384 -119.19276697 27.01984711 -117 26 C-116.26910156 25.65646484 -115.53820312 25.31292969 -114.78515625 24.95898438 C-100.23336397 18.16900045 -85.78186907 12.36447527 -70.07421875 8.93359375 C-66.38178758 8.1177538 -62.79977251 7.05971831 -59.1875 5.9375 C-39.96065482 0.33058992 -19.87000773 0 0 0 Z " fill="#AACD00" transform="translate(360,233)"/>
  <path d="M0 0 C0.495 0.99 0.495 0.99 1 2 C2.6512451 2.70399704 4.32110979 3.36474424 6 4 C18.29575477 10.27783252 30.16813887 17.47729827 42.05126953 24.49902344 C46.34711525 27.03640201 50.66253557 29.53437485 55 32 C52.93559721 37.57946701 50.10315848 42.78429527 47.36523438 48.0546875 C45.04804293 52.60424808 43.16233577 57.09349799 41.6484375 61.97192383 C40.99854461 64.00455193 40.23348584 65.95812557 39.4375 67.9375 C38.34317321 70.80518476 37.64225894 73.5630604 37.09375 76.58203125 C36.40226319 80.16382167 35.58359174 83.65983076 34.59765625 87.171875 C29.98535838 103.93106421 28.79349146 118.06508535 27 136 C6.54 136 -13.92 136 -35 136 C-35 91.79616065 -35 91.79616065 -29 77 C-28.61290365 74.77631511 -28.26346513 72.54596475 -27.9375 70.3125 C-26.62681456 62.53620234 -24.25405951 55.19477503 -21.6875 47.75 C-21.32068115 46.67403564 -20.9538623 45.59807129 -20.57592773 44.48950195 C-18.26838051 37.95086815 -15.54918079 31.80421006 -12.33691406 25.65893555 C-11.08267023 23.16441956 -10.03879354 20.67623902 -9.0625 18.0625 C-6.63876133 11.74015188 -3.29283302 5.90120075 0 0 Z " fill="#00B51E" transform="translate(126,367)"/>
  <path d="M0 0 C20.79 0 41.58 0 63 0 C63 13.04955013 62.78680357 25.37302822 60.4609375 38.1484375 C60.01899603 40.88248222 59.79612733 43.55001596 59.625 46.3125 C59.20968271 51.54549789 57.93485572 56.43646957 56.50341797 61.46337891 C55.49145962 65.04005028 54.72982562 68.5049829 54.25 72.1875 C52.90791868 80.32539308 49.18387654 87.87443214 46.02587891 95.43945312 C44.9710383 98.07228708 44.02792707 100.72843501 43.09375 103.40625 C40.96387517 109.33939813 38.24015289 114.89226762 35.375 120.5 C34.88515625 121.47453125 34.3953125 122.4490625 33.890625 123.453125 C32.05036796 127.09341488 30.2648192 130.6027712 28 134 C22.97288841 133.42828927 19.18313291 131.09520182 14.875 128.625 C14.09165283 128.18236816 13.30830566 127.73973633 12.5012207 127.28369141 C9.99602536 125.86402266 7.49747934 124.4331934 5 123 C4.17967285 122.53142578 3.3593457 122.06285156 2.51416016 121.58007812 C-7.43349123 115.89345244 -17.28980207 110.08412761 -27 104 C-26.40490621 99.74038126 -24.8847769 96.71265547 -22.75 93 C-15.9927414 80.69655969 -12.03065555 67.38568634 -8 54 C-7.61585938 52.741875 -7.23171875 51.48375 -6.8359375 50.1875 C-4.79247819 43.07438973 -3.39634888 36.00197365 -2.3125 28.6875 C-2.13328003 27.49858154 -2.13328003 27.49858154 -1.95043945 26.28564453 C-0.74801441 17.50733223 -0.49616094 8.93089684 0 0 Z " fill="#FD3B29" transform="translate(567,503)"/>
  <path d="M0 0 C0.73422373 -0.0060911 1.46844746 -0.01218221 2.22492039 -0.01845789 C4.68616558 -0.0351122 7.1468948 -0.03030874 9.60818481 -0.0255127 C11.37242166 -0.03285167 13.13665369 -0.0414374 14.90087891 -0.05117798 C19.69432288 -0.07342182 24.48759509 -0.07632319 29.28108358 -0.07443047 C33.28211279 -0.07431089 37.28310544 -0.08286996 41.28412449 -0.09120798 C50.72354954 -0.11045273 60.16288615 -0.11332211 69.60232544 -0.10656738 C79.34087169 -0.09992683 89.07903916 -0.1227891 98.81750858 -0.15988111 C107.17772096 -0.19056846 115.53781145 -0.20193915 123.89807904 -0.1980443 C128.89166041 -0.19597565 133.88494712 -0.20147383 138.87847519 -0.22593689 C143.57523063 -0.24818526 148.27137005 -0.24634217 152.9681282 -0.22600937 C154.69105252 -0.22259583 156.41401815 -0.22770327 158.1368866 -0.24199295 C160.49122774 -0.26017129 162.84347587 -0.24744976 165.19775391 -0.22705078 C166.51440977 -0.22776329 167.83106564 -0.2284758 169.18762016 -0.2292099 C174.25185678 0.66336782 177.03711476 3.09157395 180.1008606 7.26940918 C181.41072247 11.72293954 181.13164991 15.33935696 179.4758606 19.64440918 C177.04394597 23.4659893 174.99123697 24.97261705 170.7258606 26.39440918 C168.38085703 26.49539841 166.03303166 26.5338328 163.68586731 26.5415802 C162.96474866 26.54525689 162.24363001 26.54893358 161.50065929 26.55272168 C159.07791648 26.56375803 156.65521657 26.56760225 154.23245239 26.57141113 C152.49792342 26.57767575 150.76339579 26.58432255 149.02886963 26.59132385 C144.31185737 26.60873199 139.59485524 26.61928484 134.87781882 26.62752938 C131.93142569 26.63267934 128.9850357 26.63875503 126.03864479 26.64504051 C116.8218425 26.66409103 107.60504822 26.67832316 98.38823003 26.68665248 C87.74542092 26.69642911 77.10281955 26.72276034 66.46008366 26.76315337 C58.23579184 26.79329768 50.01155963 26.8081197 41.78721362 26.81143349 C36.87412318 26.81378564 31.96125473 26.8227677 27.0482235 26.84789467 C22.42626794 26.87115132 17.80468091 26.87541835 13.18268204 26.86513329 C11.48716444 26.86463725 9.79162884 26.87097767 8.09616661 26.88468933 C5.77927061 26.90237708 3.46370172 26.89531867 1.14680481 26.88215637 C-0.79694267 26.8857389 -0.79694267 26.8857389 -2.77995777 26.88939381 C-6.91086719 26.30421053 -9.05179442 24.99972434 -12.2741394 22.39440918 C-15.1845114 18.02885118 -15.92476431 14.59940839 -15.2741394 9.39440918 C-11.3805026 2.16336939 -8.15607078 0.02311088 0 0 Z " fill="#FEFEFE" transform="translate(457.2741394042969,761.6055908203125)"/>
  <path d="M0 0 C0.99 0.66 1.98 1.32 3 2 C1.42983685 5.81783593 -0.9733707 8.17443817 -3.91015625 11.03515625 C-4.39649033 11.51391708 -4.8828244 11.99267792 -5.38389587 12.48594666 C-7.44978496 14.51949209 -9.5270273 16.54127265 -11.60424805 18.56323242 C-17.83894578 24.64637505 -23.66553282 30.79878891 -29.10327148 37.62670898 C-31.29687585 40.37146739 -33.60093739 42.93433582 -36 45.5 C-39.27418423 49.05670244 -42.40642433 52.67161811 -45.4375 56.4375 C-49.09571015 60.97316443 -52.94742965 65.2570117 -56.91381836 69.51928711 C-59.90427 72.75193975 -62.73779007 76.06696766 -65.5 79.5 C-68.69931722 83.47629426 -72.02584945 87.26668298 -75.5 91 C-79.78387309 95.60388574 -83.79363033 100.36490967 -87.73828125 105.265625 C-90.16156633 108.19533062 -92.68373793 111.00742772 -95.25 113.8125 C-96.07757813 114.73160156 -96.90515625 115.65070313 -97.7578125 116.59765625 C-100 119 -100 119 -101.7421875 120.49609375 C-103.43278259 121.90058722 -103.43278259 121.90058722 -105 125 C-105.13104925 128.77858685 -104.99325151 132.51475628 -104.8671875 136.29296875 C-105.08375888 142.33785813 -107.3827768 146.22139307 -111.45703125 150.546875 C-118.61958506 156.97238502 -124.76085832 157.40365182 -134 157 C-134.23589844 157.55558594 -134.47179687 158.11117187 -134.71484375 158.68359375 C-136.3127752 161.56375591 -138.305005 163.66369076 -140.5625 166.0625 C-144.03391819 169.79595956 -147.3591628 173.59216657 -150.5625 177.5625 C-159.55750578 188.67021177 -159.55750578 188.67021177 -164 193 C-164.66 193 -165.32 193 -166 193 C-166 192.34 -166 191.68 -166 191 C-166.58426758 190.7417041 -167.16853516 190.4834082 -167.77050781 190.21728516 C-170.17716622 188.90326864 -171.75319337 187.47519985 -173.671875 185.5234375 C-174.66767578 184.51796875 -174.66767578 184.51796875 -175.68359375 183.4921875 C-176.70646484 182.44417969 -176.70646484 182.44417969 -177.75 181.375 C-178.44738281 180.66859375 -179.14476562 179.9621875 -179.86328125 179.234375 C-181.58012488 177.49401297 -183.29211832 175.74915019 -185 174 C-183.6374818 170.91625125 -182.12774154 168.92531716 -179.65625 166.64453125 C-178.99141602 166.02610352 -178.32658203 165.40767578 -177.64160156 164.77050781 C-176.58150879 163.80129395 -176.58150879 163.80129395 -175.5 162.8125 C-174.78038086 162.14702148 -174.06076172 161.48154297 -173.31933594 160.79589844 C-171.21883329 158.85733503 -169.11080971 156.92732846 -167 155 C-166.45021484 154.49581543 -165.90042969 153.99163086 -165.33398438 153.47216797 C-157.4510713 146.24964464 -157.4510713 146.24964464 -154.734375 144.74609375 C-152.61561896 142.99284197 -152.61561896 142.99284197 -152.75 139.48828125 C-152.82082532 138.0956617 -152.90479079 136.70366522 -153 135.3125 C-153.19768203 128.98173295 -153.19442888 124.0145686 -149 119 C-144.53274794 114.32364252 -139.38175318 109.39228534 -132.6875 108.79296875 C-129.33013889 108.73667154 -126.1582524 108.69700633 -122.89453125 109.55078125 C-120.6396108 110.23388459 -120.6396108 110.23388459 -117 110 C-113.57689962 107.38588631 -110.86657648 104.19812002 -108 101 C-106.81368597 99.91296977 -105.60583371 98.84885133 -104.375 97.8125 C-100.35218677 94.36092625 -96.49059406 90.75015956 -92.625 87.125 C-87.61366538 82.42814309 -82.56935852 77.7777239 -77.44921875 73.19921875 C-73.11123675 69.30402917 -68.82547426 65.3515627 -64.53222656 61.40722656 C-62.02322888 59.10291448 -59.51149532 56.80158909 -57 54.5 C-55.99998648 53.58334808 -54.99998649 52.6666814 -54 51.75 C-48 46.25 -48 46.25 -46.58404541 44.95231628 C-45.10714015 43.59823038 -43.63117007 42.24312466 -42.15527344 40.88793945 C-40.20754755 39.10184948 -38.25237083 37.32558461 -36.29003906 35.55541992 C-28.19003899 28.22022978 -20.44827326 20.56583513 -12.75 12.8125 C-11.50414445 11.56161167 -10.25805187 10.31095938 -9.01171875 9.06054688 C-6.00508527 6.0430664 -3.00163471 3.0224527 0 0 Z " fill="#FBFBFC" transform="translate(486,370)"/>
  <path d="M0 0 C45.21 0 90.42 0 137 0 C137 0.33 137 0.66 137 1 C135.86046875 1.08636719 134.7209375 1.17273438 133.546875 1.26171875 C104.8835194 3.69828764 78.65267508 13.02168644 56 31 C55.48872559 31.40444336 54.97745117 31.80888672 54.45068359 32.22558594 C24.19429643 56.3689294 5.91560985 90.83634721 1.50708008 129.17504883 C1.33131638 130.78264359 1.16455896 132.39121968 1 134 C0.67 134 0.34 134 0 134 C0 89.78 0 45.56 0 0 Z " fill="#FDFDFD" transform="translate(0,0)"/>
  <path d="M0 0 C43.89 0 87.78 0 133 0 C133 43.23 133 86.46 133 131 C132.67 131 132.34 131 132 131 C131.79697266 129.19982422 131.79697266 129.19982422 131.58984375 127.36328125 C126.94010252 90.00240204 108.29195832 55.90493151 79 32 C74.77482002 28.82022538 70.44722248 25.85487978 66 23 C64.94296875 22.319375 63.8859375 21.63875 62.796875 20.9375 C52.77138995 14.85568916 42.05844966 10.81832851 31 7 C30.32904297 6.76764648 29.65808594 6.53529297 28.96679688 6.29589844 C19.46692147 3.09032551 9.92843224 1.91351193 0 1 C0 0.67 0 0.34 0 0 Z " fill="#FDFDFD" transform="translate(947,0)"/>
  <path d="M0 0 C0.33 0 0.66 0 1 0 C1.11214844 1.20269531 1.22429688 2.40539062 1.33984375 3.64453125 C4.99493108 37.05296153 19.10171539 64.14950221 41 89 C41.63292969 89.71929688 42.26585937 90.43859375 42.91796875 91.1796875 C53.58619749 102.53087128 67.25066179 110.92584273 81 118 C81.9178125 118.47953125 82.835625 118.9590625 83.78125 119.453125 C98.72235157 126.73921774 114.61365371 130.03156641 131 132 C131 132.33 131 132.66 131 133 C87.77 133 44.54 133 0 133 C0 89.11 0 45.22 0 0 Z " fill="#FDFDFD" transform="translate(0,947)"/>
  <path d="M0 0 C0.33 0 0.66 0 1 0 C1 43.89 1 87.78 1 133 C-42.89 133 -86.78 133 -132 133 C-132 132.67 -132 132.34 -132 132 C-130.52466797 131.88785156 -130.52466797 131.88785156 -129.01953125 131.7734375 C-95.71960561 128.79652107 -66.14745957 113.79454587 -42 91 C-41.31292969 90.36578125 -40.62585937 89.7315625 -39.91796875 89.078125 C-16.01525009 66.25975058 -2.39105837 32.53097832 0 0 Z " fill="#FDFDFD" transform="translate(1079,947)"/>
  <path d="M0 0 C-1.36373208 2.99557653 -2.93311694 5.26944812 -5.125 7.71875 C-5.74761719 8.41484375 -6.37023437 9.1109375 -7.01171875 9.828125 C-10.96846204 14.15022572 -15.0014882 18.3981169 -19.0390625 22.64453125 C-22.94266533 26.76667555 -26.73112826 30.96046866 -30.45019531 35.24951172 C-32.33157375 37.3745091 -34.32387266 39.351748 -36.375 41.3125 C-40.51266201 45.38704513 -44.10705172 49.75820477 -47.73046875 54.2890625 C-50.64182059 57.76664972 -53.81156411 60.90528915 -57.06640625 64.05859375 C-59.15749858 66.07440631 -59.15749858 66.07440631 -61.25 68.9375 C-63.29137419 71.3434053 -65.0140135 72.08761524 -68 73 C-64.26545444 67.66493491 -60.14497496 62.91619358 -55.6875 58.1875 C-50.95900391 53.17115338 -46.49714765 48.03829891 -42.18359375 42.65625 C-39.1070016 38.91370499 -35.84148254 35.35870922 -32.5546875 31.80078125 C-30.61913709 29.67877873 -28.74035149 27.53428333 -26.87109375 25.35546875 C-22.64907083 20.51635459 -18.14983959 15.96374958 -13.60961914 11.42431641 C-12.16718144 9.97965004 -10.73298435 8.52710146 -9.29882812 7.07421875 C-8.38939453 6.16285156 -7.47996094 5.25148438 -6.54296875 4.3125 C-5.71821045 3.48363281 -4.89345215 2.65476562 -4.04370117 1.80078125 C-2 0 -2 0 0 0 Z " fill="#070609" transform="translate(492,372)"/>
  <path d="M0 0 C-1.36752007 4.1760828 -3.19457347 6.49919889 -6.375 9.5 C-8.89405358 11.9184524 -11.12227705 14.15963948 -13.25 16.9375 C-15.29137419 19.3434053 -17.0140135 20.08761524 -20 21 C-16.24237703 15.67670079 -12.14016907 10.80412553 -7.75 6 C-6.95287598 5.1179187 -6.95287598 5.1179187 -6.13964844 4.21801758 C-2.24073468 0 -2.24073468 0 0 0 Z " fill="#0D0C11" transform="translate(444,424)"/>
  <path d="M0 0 C0.66 0.33 1.32 0.66 2 1 C-5.92 8.92 -13.84 16.84 -22 25 C-22 22 -22 22 -19.98828125 19.6953125 C-19.10527344 18.84710938 -18.22226563 17.99890625 -17.3125 17.125 C-16.44238281 16.28195312 -15.57226562 15.43890625 -14.67578125 14.5703125 C-13.79277344 13.72210938 -12.90976563 12.87390625 -12 12 C-10.32956403 10.33711118 -8.66261318 8.67071032 -7 7 C-4.66666667 4.66666667 -2.33333333 2.33333333 0 0 Z " fill="#202531" transform="translate(226,345)"/>
  <path d="M0 0 C0.33 0 0.66 0 1 0 C1.0809723 2.43816585 1.14046972 4.87364384 1.1875 7.3125 C1.22520508 8.34793945 1.22520508 8.34793945 1.26367188 9.40429688 C1.33834499 14.55674183 1.33834499 14.55674183 -0.51171875 16.98046875 C-1.24841797 17.48513672 -1.24841797 17.48513672 -2 18 C-1.8590651 15.56212615 -1.71245458 13.12482147 -1.5625 10.6875 C-1.52318359 9.99720703 -1.48386719 9.30691406 -1.44335938 8.59570312 C-1.25072585 5.52838465 -0.97677283 2.93031848 0 0 Z " fill="#030307" transform="translate(382,496)"/>
  <path d="M0 0 C-1.98796013 4.4729103 -4.24337546 8.16161102 -8.75 10.3125 C-9.86375 10.6528125 -9.86375 10.6528125 -11 11 C-10.06558465 9.72689688 -9.12732889 8.456612 -8.1875 7.1875 C-7.66542969 6.47980469 -7.14335937 5.77210938 -6.60546875 5.04296875 C-2.64244742 0 -2.64244742 0 0 0 Z " fill="#18171C" transform="translate(435,434)"/>
  <path d="M0 0 C3.63 0 7.26 0 11 0 C11 0.99 11 1.98 11 3 C7.37 2.34 3.74 1.68 0 1 C0 0.67 0 0.34 0 0 Z " fill="#1E1B37" transform="translate(1013,145)"/>
</svg>
